<svg width="745" height="745" viewBox="0 0 745 745" fill="none" xmlns="http://www.w3.org/2000/svg">
<circle cx="372.5" cy="372.5" r="372.5" fill="#4867AA"/>
<path d="M403.377 134H445.232L482.628 134.681V216.453H455.868H426.363L419.502 218.156L415.385 220.541L412.983 222.926L410.925 226.674L409.896 229.4L408.866 233.148L408.523 235.874V238.94V288.684H484V293.795C483.657 295.726 482.971 299.655 482.971 299.928C482.971 300.2 482.742 302.313 482.628 303.335C482.399 305.947 481.942 311.24 481.942 311.512C481.942 311.785 481.027 318.894 480.569 322.415L480.226 328.207L478.168 345.924C477.71 349.672 476.795 357.304 476.795 357.849C476.795 358.394 476.338 361.484 476.109 362.96L475.423 371.137L475.08 373.181H408.523V611H308.46L308.345 373.181H261.111L261 288.684H308.344V229.059L309.031 219.179L310.403 209.298L312.804 199.076L316.235 189.196L320.695 179.996L326.184 171.479L332.703 162.961L338.878 156.828L347.798 150.014L357.404 144.562L368.726 139.792L378.332 137.066L388.281 135.022L397.544 134H403.377Z" fill="white" stroke="white"/>
</svg>
