<svg width="14" height="14" viewBox="0 0 827 770" fill="none" xmlns="http://www.w3.org/2000/svg">
    <path
        d="M62.6881 357.701L56.4569 354.668L46.7664 351.72L32.1556 350.422L24.6782 352.848L18.4471 354.668L9.10045 362.555C7.64653 364.374 4.61405 368.014 4.11556 368.014C3.61707 368.014 1.83082 374.081 1 377.114V392.28L1.62311 396.526L3.49245 400.773L10.9698 409.872L25.9245 426.251L42.1254 443.237L58.3263 459.616L76.3965 477.815L90.105 492.981L105.06 508.147L116.276 522.1L129.361 539.692L144.316 560.318L151.793 570.63L164.255 589.436L183.572 619.768L210.366 660.412L231.551 693.171L245.26 715.616L250.868 724.109L257.099 733.815L265.199 745.948L271.431 755.654L278.908 762.327L284.516 765.967L295.109 769H308.817L315.671 767.18L325.641 762.327L333.119 755.654L337.48 748.981L346.204 732.602L358.043 710.763L368.636 691.957L394.184 644.64L424.716 588.223L447.148 548.792L468.334 509.967L499.489 457.796L520.052 425.038L553.7 374.081L595.449 318.27L638.443 263.066L672.714 222.422L721.94 165.398L752.473 130.82L772.412 108.981L794.221 84.109L818.523 56.8104L822.884 50.7441L825.377 45.891L826 34.9716V31.3318L825.377 25.2654L822.884 19.8057L816.03 11.3128L807.93 4.63981L797.96 1H778.02L776.774 1.60664C770.751 5.04423 758.579 11.9194 758.081 11.9194C757.582 11.9194 744.58 20.8167 738.141 25.2654L714.463 41.6446L686.423 63.4834L656.514 88.3555L628.474 112.014L614.142 124.754L599.187 138.706L579.871 156.299L554.946 179.957L535.63 199.37L510.705 224.242L485.781 249.72L463.349 272.773L439.671 297.645L420.977 317.664L405.4 334.649L391.068 350.422L376.736 366.194L361.782 382.573L346.204 400.166L324.395 424.431L297.601 454.763L270.184 485.095L116.276 390.46L98.2054 378.934L81.3814 369.228L69.5423 362.555L62.6881 357.701Z"
        fill="#277E37" />
    <path
        d="M46.4872 351.635L46.7664 351.72M46.7664 351.72L56.4569 354.668L62.6881 357.701L69.5423 362.555L81.3814 369.228L98.2054 378.934L116.276 390.46L270.184 485.095L297.601 454.763L324.395 424.431L346.204 400.166L361.782 382.573L376.736 366.194L391.068 350.422L405.4 334.649L420.977 317.664L439.671 297.645L463.349 272.773L485.781 249.72L510.705 224.242L535.63 199.37L554.946 179.957L579.871 156.299L599.187 138.706L614.142 124.754L628.474 112.014L656.514 88.3555L686.423 63.4834L714.463 41.6446L738.141 25.2654C744.58 20.8167 757.582 11.9194 758.081 11.9194C758.579 11.9194 770.751 5.04423 776.774 1.60664L778.02 1H797.96L807.93 4.63981L816.03 11.3128L822.884 19.8057L825.377 25.2654L826 31.3318V34.9716L825.377 45.891L822.884 50.7441L818.523 56.8104L794.221 84.109L772.412 108.981L752.473 130.82L721.94 165.398L672.715 222.422L638.443 263.066L595.449 318.27L553.7 374.081L520.052 425.038L499.489 457.796L468.334 509.967L447.148 548.791L424.716 588.223L394.184 644.64L368.636 691.957L358.043 710.763L346.204 732.602L337.48 748.981L333.119 755.654L325.641 762.327L315.671 767.18L308.817 769H295.109L284.516 765.967L278.908 762.327L271.431 755.654L265.199 745.948L257.099 733.815L250.868 724.109L245.26 715.616L231.551 693.171L210.366 660.412L183.572 619.768L164.255 589.436L151.793 570.63L144.316 560.318L129.361 539.692L116.276 522.1L105.06 508.147L90.105 492.981L76.3965 477.815L58.3263 459.616L42.1254 443.237L25.9245 426.251L10.9698 409.872L3.49245 400.773L1.62311 396.526L1 392.28V377.114C1.83082 374.081 3.61707 368.014 4.11556 368.014C4.61405 368.014 7.64653 364.374 9.10045 362.555L18.4471 354.668L24.6782 352.848L32.1556 350.422L46.7664 351.72Z"
        stroke="#24562D" />
</svg>