<svg width="745" height="745" viewBox="0 0 745 745" fill="none" xmlns="http://www.w3.org/2000/svg">
<path fill-rule="evenodd" clip-rule="evenodd" d="M216.625 0H248.176H278.786H306.571H443.609H475.632H508.126H531.201L550.509 0.940657L565.107 2.82197L575.939 5.17361L591.95 8.93624L607.02 14.1098L616.909 18.3428L631.508 25.3977L649.874 36.6856L667.769 50.3251L677.658 58.791L687.076 68.1976L693.198 75.7229L703.559 87.9514L707.797 94.0657L717.216 109.116L723.338 121.345L728.518 132.162L732.285 142.509L737.936 158.501L741.233 174.492L743.116 186.72L744.058 197.068L745 527.708V533.352L744.529 538.526L743.587 553.576L740.291 576.622L736.994 589.321L733.227 600.609L729.93 608.605L725.221 620.363L718.157 634.003L712.035 644.35L705.442 653.756L694.14 669.277L686.135 677.273L677.658 686.209L663.059 698.437L647.519 709.725L635.275 717.251L613.613 727.598L602.781 732.301L590.066 736.534L575.468 739.826L566.52 741.708L556.16 743.119L533.085 745H527.434H207.677L186.015 743.119L174.712 741.237L155.875 737.475L147.87 734.653L135.626 730.42L112.08 719.132L89.9463 705.963L75.3477 694.675L69.2257 688.561L60.7491 680.565L54.6271 673.98L45.2086 663.163L34.8483 648.583L26.8426 635.413L20.2497 622.715L11.7731 603.902L6.59292 587.44L4.70923 578.033L1.41277 560.161L0 549.814V210.707V194.246L3.29646 172.61C4.55225 167.123 7.06384 156.055 7.06384 155.679C7.06384 155.302 9.57543 148.31 10.8312 144.861L16.4823 129.811L23.0752 116.171L29.1972 105.354L36.2611 94.536L49.4469 76.6635L62.1618 62.5537L75.8186 49.8548L86.1789 42.3295L95.1264 36.6856L113.963 24.9274L143.161 11.7582L161.527 6.11427L181.776 2.35164L194.02 0.470328L216.625 0ZM538.415 74.3119H209.561L199.671 74.7822L191.195 76.1932C188.055 76.8203 181.682 78.0745 181.305 78.0745C180.929 78.0745 170.474 81.21 165.294 82.7778L158.23 85.1294L146.457 91.2437L140.335 95.0063L129.504 102.532L120.556 110.057L108.783 121.815L105.016 126.048L99.8357 132.633L95.5973 138.747L90.8881 147.213L84.7661 159.912L79.115 175.432L75.3477 190.483L73.464 207.885V529.119L74.4058 546.051L77.7023 564.864L81.4697 576.622L88.0626 592.614L96.0683 605.783L105.487 618.952L112.551 627.418L125.265 639.176L139.864 649.994L153.05 657.049L168.59 663.163L176.125 665.515L186.485 667.866L193.078 669.277L206.264 670.688H538.736L546.271 669.747L558.515 667.866L566.991 665.515L575.939 662.693L583.944 659.871L591.479 656.578L602.31 650.934L612.671 643.879L622.089 636.354L625.857 633.062L634.333 624.596L639.513 618.482L643.281 613.308L649.403 604.842L652.699 599.198L657.879 589.321L661.176 582.266L664.943 570.508L668.711 555.928L670.594 541.348V531.471V213.059L669.652 196.597L667.769 185.78L665.885 176.843L662.589 166.967L657.408 154.738L652.228 144.861L647.99 137.806L639.042 125.578L630.566 116.171L619.735 106.765L610.316 99.2393L602.781 94.536L594.776 89.8327L580.648 83.2481L566.049 79.0151L553.334 76.1932L538.415 74.3119Z" fill="url(#paint0_linear_159_34)"/>
<path fill-rule="evenodd" clip-rule="evenodd" d="M351.779 180.136L358.372 179.665H386.628L406.877 182.017L416.296 184.369L438.9 190.953L463.859 202.241L476.103 209.766L487.876 217.762L494.94 223.406L505.3 232.342L512.364 239.397C512.741 239.773 516.288 243.63 518.015 245.511L522.724 251.626L530.73 261.503L537.323 271.85L540.149 277.023L549.567 294.425L550.509 297.247L553.805 305.713L556.631 313.239L558.044 317.942L559.927 324.997L561.34 330.641L564.166 346.632C564.323 348.356 564.637 351.9 564.637 352.276C564.637 352.652 564.95 358.077 565.107 360.742V381.436L564.637 391.783L563.224 401.19L562.282 408.715L558.985 424.706L558.044 427.058L556.631 430.821L549.096 451.045L543.445 462.803L536.381 474.091L532.143 480.205L525.079 490.552L519.428 497.137L508.597 508.895L502.946 514.069L494.469 522.064L485.521 528.649L481.754 531.471L472.336 537.585L466.685 541.348L452.557 548.403L441.255 552.636L433.72 555.458L425.714 557.809L415.825 560.631L410.174 561.572L401.226 562.983L389.453 565.335H375.796H357.901L345.657 563.453L330.117 561.102L320.228 558.75L307.042 554.517L295.74 550.284C291.501 548.089 282.93 543.699 282.554 543.699C282.177 543.699 274.862 539.31 271.252 537.115L253.827 525.827L241.113 515.009L231.223 506.073L217.566 490.082L208.148 475.972L204.381 470.328L198.259 458.57L193.549 448.223L188.84 436.465L184.131 421.414L179.893 402.131L178.951 396.487L178.009 382.847V365.915L178.951 351.335L180.834 336.755L184.602 320.764L187.898 310.417L192.607 298.658L197.788 286.43L202.026 279.845L211.915 263.854L222.747 249.274L232.165 238.927L242.996 228.58L258.537 215.881L269.368 208.826L282.083 201.771L298.094 193.775L315.989 187.191L330.117 183.898L351.779 180.136ZM391.808 255.388L372.971 253.507C368.262 253.664 358.655 253.977 357.901 253.977C357.148 253.977 351.622 255.231 348.954 255.859L335.768 258.681L325.879 262.443L314.106 268.087L305.629 273.731L294.327 282.197L287.263 288.782L278.315 298.658L270.31 309.476L263.246 322.175L258.066 334.403L254.769 344.751L252.415 359.331V381.436L253.357 388.961L256.653 404.953L261.833 419.062L267.955 431.291L275.49 442.579L282.554 451.045L292.914 461.392L305.629 471.739L322.111 480.675L339.064 487.26L356.489 491.023L374.384 491.493C378.308 491.336 386.251 491.023 386.628 491.023C387.004 491.023 396.831 488.828 401.697 487.73L412.528 484.438L419.592 481.616L432.307 474.561L442.668 467.977L451.615 460.922L460.092 451.985L464.801 446.342L469.51 440.227L473.278 434.583L477.045 428.469L482.225 418.592L485.521 409.656L488.347 399.779L489.76 392.724L491.173 381.436L491.643 369.208L490.702 360.271L489.289 349.924L488.347 344.751C487.719 343.026 486.463 339.483 486.463 339.107C486.463 338.636 484.58 333.463 484.58 332.992C484.58 332.616 483.324 329.073 482.696 327.348L479.399 320.764C477.673 317.785 474.219 311.734 474.219 311.357C474.219 310.981 470.766 306.184 469.039 303.832L461.504 294.425L455.382 287.841L444.551 278.434L438.429 274.201L425.243 266.206L418.65 263.384L410.174 259.621L403.581 257.74L391.808 255.388Z" fill="url(#paint1_linear_159_34)"/>
<path d="M560.398 123.226H576.41L586.77 126.048L592.421 128.4L599.485 133.573L604.194 137.806L608.903 143.45L612.2 148.624L615.967 156.149L617.851 161.793L618.793 166.967V182.017C618.793 182.393 617.851 186.25 617.38 188.131L614.554 196.597L610.787 202.241L604.194 210.237L595.247 217.292L587.712 221.054L579.235 223.876L569.817 224.817L559.456 224.347L549.096 221.525L538.736 215.881L531.672 209.296L526.492 203.182L521.312 194.716L518.486 185.78L517.073 176.843V168.378L517.544 162.734L520.841 154.738L523.195 149.094L528.375 142.039L534.497 135.925L540.619 130.751L547.212 127.459L550.98 125.578L560.398 123.226Z" fill="url(#paint2_linear_159_34)"/>
<defs>
<linearGradient id="paint0_linear_159_34" x1="372.5" y1="0" x2="372.5" y2="745" gradientUnits="userSpaceOnUse">
<stop stop-color="#BC1888"/>
<stop offset="0.253625" stop-color="#CC2366"/>
<stop offset="0.49686" stop-color="#DC2743"/>
<stop offset="0.771051" stop-color="#E6683C"/>
<stop offset="1" stop-color="#F09433"/>
</linearGradient>
<linearGradient id="paint1_linear_159_34" x1="372.5" y1="0" x2="372.5" y2="745" gradientUnits="userSpaceOnUse">
<stop stop-color="#BC1888"/>
<stop offset="0.253625" stop-color="#CC2366"/>
<stop offset="0.49686" stop-color="#DC2743"/>
<stop offset="0.771051" stop-color="#E6683C"/>
<stop offset="1" stop-color="#F09433"/>
</linearGradient>
<linearGradient id="paint2_linear_159_34" x1="372.5" y1="0" x2="372.5" y2="745" gradientUnits="userSpaceOnUse">
<stop stop-color="#BC1888"/>
<stop offset="0.253625" stop-color="#CC2366"/>
<stop offset="0.49686" stop-color="#DC2743"/>
<stop offset="0.771051" stop-color="#E6683C"/>
<stop offset="1" stop-color="#F09433"/>
</linearGradient>
</defs>
</svg>
