<svg width="1898" height="755" viewBox="0 0 1898 755" fill="none" xmlns="http://www.w3.org/2000/svg">
<path d="M815.066 567V510.151H839.673C844.762 510.151 849.148 510.99 852.83 512.668C856.511 514.293 859.354 516.648 861.357 519.734C863.36 522.82 864.362 526.502 864.362 530.779C864.362 535.002 863.36 538.657 861.357 541.743C859.354 544.829 856.511 547.211 852.83 548.889C849.148 550.514 844.762 551.326 839.673 551.326H822.375L828.222 545.397V567H815.066ZM828.222 546.859L822.375 540.606H838.942C843.003 540.606 846.035 539.739 848.038 538.007C850.041 536.274 851.043 533.865 851.043 530.779C851.043 527.639 850.041 525.202 848.038 523.47C846.035 521.737 843.003 520.871 838.942 520.871H822.375L828.222 514.618V546.859ZM899.445 567V558.473L898.633 556.605V541.337C898.633 538.63 897.793 536.518 896.115 535.002C894.491 533.486 891.973 532.728 888.562 532.728C886.234 532.728 883.933 533.107 881.659 533.865C879.439 534.569 877.544 535.543 875.974 536.789L871.426 527.937C873.808 526.258 876.678 524.959 880.035 524.038C883.392 523.118 886.802 522.658 890.268 522.658C896.927 522.658 902.098 524.228 905.779 527.368C909.461 530.508 911.302 535.408 911.302 542.068V567H899.445ZM886.126 567.65C882.715 567.65 879.791 567.081 877.355 565.944C874.918 564.753 873.05 563.156 871.751 561.153C870.452 559.149 869.802 556.903 869.802 554.412C869.802 551.813 870.425 549.539 871.67 547.59C872.969 545.641 875 544.125 877.761 543.042C880.522 541.905 884.122 541.337 888.562 541.337H900.176V548.727H889.943C886.965 548.727 884.908 549.214 883.771 550.189C882.688 551.163 882.146 552.382 882.146 553.843C882.146 555.468 882.769 556.767 884.014 557.742C885.314 558.662 887.073 559.122 889.293 559.122C891.405 559.122 893.3 558.635 894.978 557.66C896.656 556.632 897.875 555.143 898.633 553.194L900.582 559.041C899.661 561.857 897.983 563.995 895.546 565.457C893.11 566.919 889.97 567.65 886.126 567.65ZM945.616 567.975C942.042 567.975 938.794 567.46 935.87 566.432C932.946 565.349 930.402 563.697 928.236 561.478C926.124 559.204 924.473 556.307 923.282 552.788C922.145 549.268 921.576 545.072 921.576 540.2C921.576 536.735 921.874 533.567 922.47 530.698C923.065 527.828 923.959 525.229 925.15 522.901C926.341 520.519 927.857 518.435 929.698 516.648C931.593 514.807 933.786 513.291 936.276 512.1C938.821 510.855 941.69 509.907 944.885 509.258L965.675 505.116L967.381 515.998L949.026 519.653C947.944 519.869 946.698 520.167 945.291 520.546C943.937 520.871 942.557 521.385 941.149 522.089C939.795 522.793 938.523 523.795 937.332 525.094C936.195 526.339 935.274 527.991 934.571 530.048C933.867 532.051 933.515 534.542 933.515 537.52C933.515 538.44 933.542 539.144 933.596 539.631C933.704 540.118 933.786 540.633 933.84 541.174C933.948 541.716 934.002 542.555 934.002 543.692L929.941 539.712C931.133 537.168 932.649 535.002 934.489 533.215C936.384 531.429 938.55 530.075 940.986 529.155C943.477 528.18 946.238 527.693 949.27 527.693C953.385 527.693 956.985 528.532 960.071 530.21C963.212 531.835 965.648 534.136 967.381 537.114C969.113 540.091 969.979 543.475 969.979 547.265C969.979 551.38 968.951 555.008 966.893 558.148C964.836 561.234 961.966 563.643 958.285 565.376C954.657 567.108 950.434 567.975 945.616 567.975ZM946.265 558.148C948.377 558.148 950.245 557.688 951.869 556.767C953.493 555.793 954.738 554.52 955.605 552.95C956.525 551.326 956.985 549.512 956.985 547.509C956.985 545.56 956.525 543.827 955.605 542.311C954.738 540.795 953.493 539.604 951.869 538.738C950.245 537.872 948.35 537.438 946.184 537.438C944.072 537.438 942.178 537.872 940.499 538.738C938.821 539.55 937.521 540.687 936.601 542.149C935.68 543.611 935.22 545.316 935.22 547.265C935.22 549.268 935.68 551.109 936.601 552.788C937.575 554.412 938.875 555.711 940.499 556.686C942.178 557.66 944.1 558.148 946.265 558.148ZM1000.67 567.65C996.01 567.65 991.868 566.675 988.24 564.726C984.667 562.777 981.825 560.124 979.713 556.767C977.656 553.356 976.627 549.485 976.627 545.154C976.627 540.768 977.656 536.897 979.713 533.54C981.825 530.129 984.667 527.476 988.24 525.581C991.868 523.632 996.01 522.658 1000.67 522.658C1005.27 522.658 1009.38 523.632 1013.01 525.581C1016.64 527.476 1019.48 530.102 1021.54 533.459C1023.6 536.816 1024.62 540.714 1024.62 545.154C1024.62 549.485 1023.6 553.356 1021.54 556.767C1019.48 560.124 1016.64 562.777 1013.01 564.726C1009.38 566.675 1005.27 567.65 1000.67 567.65ZM1000.67 557.254C1002.78 557.254 1004.67 556.767 1006.35 555.793C1008.03 554.818 1009.36 553.437 1010.33 551.651C1011.3 549.81 1011.79 547.644 1011.79 545.154C1011.79 542.609 1011.3 540.443 1010.33 538.657C1009.36 536.87 1008.03 535.489 1006.35 534.515C1004.67 533.54 1002.78 533.053 1000.67 533.053C998.554 533.053 996.659 533.54 994.981 534.515C993.303 535.489 991.949 536.87 990.92 538.657C989.946 540.443 989.459 542.609 989.459 545.154C989.459 547.644 989.946 549.81 990.92 551.651C991.949 553.437 993.303 554.818 994.981 555.793C996.659 556.767 998.554 557.254 1000.67 557.254ZM1042.72 567V530.779L1045.56 533.703H1027.93V523.307H1070.08V533.703H1052.46L1055.3 530.779V567H1042.72ZM1104.61 567V558.473L1103.8 556.605V541.337C1103.8 538.63 1102.96 536.518 1101.28 535.002C1099.66 533.486 1097.14 532.728 1093.73 532.728C1091.4 532.728 1089.1 533.107 1086.83 533.865C1084.61 534.569 1082.71 535.543 1081.14 536.789L1076.59 527.937C1078.98 526.258 1081.85 524.959 1085.2 524.038C1088.56 523.118 1091.97 522.658 1095.44 522.658C1102.09 522.658 1107.27 524.228 1110.95 527.368C1114.63 530.508 1116.47 535.408 1116.47 542.068V567H1104.61ZM1091.29 567.65C1087.88 567.65 1084.96 567.081 1082.52 565.944C1080.09 564.753 1078.22 563.156 1076.92 561.153C1075.62 559.149 1074.97 556.903 1074.97 554.412C1074.97 551.813 1075.59 549.539 1076.84 547.59C1078.14 545.641 1080.17 544.125 1082.93 543.042C1085.69 541.905 1089.29 541.337 1093.73 541.337H1105.34V548.727H1095.11C1092.13 548.727 1090.08 549.214 1088.94 550.189C1087.86 551.163 1087.31 552.382 1087.31 553.843C1087.31 555.468 1087.94 556.767 1089.18 557.742C1090.48 558.662 1092.24 559.122 1094.46 559.122C1096.57 559.122 1098.47 558.635 1100.15 557.66C1101.82 556.632 1103.04 555.143 1103.8 553.194L1105.75 559.041C1104.83 561.857 1103.15 563.995 1100.71 565.457C1098.28 566.919 1095.14 567.65 1091.29 567.65ZM1150.46 567.65C1145.48 567.65 1141.09 566.675 1137.3 564.726C1133.57 562.777 1130.67 560.124 1128.61 556.767C1126.55 553.356 1125.53 549.485 1125.53 545.154C1125.53 540.768 1126.53 536.897 1128.53 533.54C1130.59 530.129 1133.38 527.476 1136.9 525.581C1140.42 523.632 1144.39 522.658 1148.83 522.658C1153.11 522.658 1156.96 523.578 1160.37 525.419C1163.83 527.206 1166.57 529.804 1168.57 533.215C1170.57 536.572 1171.57 540.606 1171.57 545.316C1171.57 545.803 1171.55 546.372 1171.49 547.022C1171.44 547.617 1171.38 548.186 1171.33 548.727H1135.84V541.337H1164.67L1159.8 543.529C1159.8 541.255 1159.34 539.279 1158.42 537.601C1157.5 535.922 1156.22 534.623 1154.6 533.703C1152.98 532.728 1151.08 532.241 1148.92 532.241C1146.75 532.241 1144.83 532.728 1143.15 533.703C1141.52 534.623 1140.25 535.95 1139.33 537.682C1138.41 539.36 1137.95 541.364 1137.95 543.692V545.641C1137.95 548.023 1138.47 550.135 1139.49 551.976C1140.58 553.762 1142.07 555.143 1143.96 556.117C1145.91 557.038 1148.18 557.498 1150.78 557.498C1153.11 557.498 1155.14 557.146 1156.87 556.442C1158.66 555.738 1160.29 554.683 1161.75 553.275L1168.49 560.584C1166.48 562.858 1163.97 564.618 1160.93 565.863C1157.9 567.054 1154.41 567.65 1150.46 567.65ZM1182.91 567V523.307H1196.15L1212.63 553.194H1207.35L1224.98 523.307H1236.83L1237 567H1225.55V536.301L1227.5 537.601L1212.47 562.777H1207.11L1192.01 536.708L1194.36 536.139V567H1182.91ZM1296.17 567.65C1291.46 567.65 1287.27 566.702 1283.58 564.807C1279.9 562.858 1277.01 560.178 1274.89 556.767C1272.84 553.356 1271.81 549.485 1271.81 545.154C1271.81 540.768 1272.84 536.897 1274.89 533.54C1277.01 530.129 1279.9 527.476 1283.58 525.581C1287.27 523.632 1291.46 522.658 1296.17 522.658C1300.77 522.658 1304.78 523.632 1308.19 525.581C1311.6 527.476 1314.12 530.21 1315.74 533.784L1305.92 539.063C1304.78 537.005 1303.35 535.489 1301.61 534.515C1299.93 533.54 1298.09 533.053 1296.09 533.053C1293.92 533.053 1291.98 533.54 1290.24 534.515C1288.51 535.489 1287.13 536.87 1286.1 538.657C1285.13 540.443 1284.64 542.609 1284.64 545.154C1284.64 547.698 1285.13 549.864 1286.1 551.651C1287.13 553.437 1288.51 554.818 1290.24 555.793C1291.98 556.767 1293.92 557.254 1296.09 557.254C1298.09 557.254 1299.93 556.794 1301.61 555.874C1303.35 554.899 1304.78 553.356 1305.92 551.245L1315.74 556.605C1314.12 560.124 1311.6 562.858 1308.19 564.807C1304.78 566.702 1300.77 567.65 1296.17 567.65ZM1344.17 566.919L1344.82 556.524C1345.14 556.578 1345.47 556.632 1345.79 556.686C1346.12 556.686 1346.42 556.686 1346.69 556.686C1348.2 556.686 1349.39 556.253 1350.26 555.387C1351.13 554.52 1351.78 553.356 1352.21 551.894C1352.64 550.378 1352.94 548.673 1353.1 546.778C1353.32 544.883 1353.48 542.907 1353.59 540.849L1354.24 523.307H1391.6V567H1378.93V530.617L1381.77 533.703H1362.6L1365.28 530.454L1364.72 541.418C1364.55 545.316 1364.23 548.889 1363.74 552.138C1363.31 555.387 1362.58 558.202 1361.55 560.584C1360.52 562.912 1359.14 564.726 1357.41 566.025C1355.67 567.271 1353.45 567.893 1350.75 567.893C1349.77 567.893 1348.74 567.812 1347.66 567.65C1346.58 567.487 1345.41 567.244 1344.17 566.919ZM1411.33 583.405C1409.06 583.405 1406.81 583.053 1404.59 582.349C1402.37 581.645 1400.56 580.671 1399.15 579.426L1403.78 570.411C1404.75 571.277 1405.86 571.954 1407.11 572.441C1408.41 572.929 1409.68 573.172 1410.93 573.172C1412.71 573.172 1414.12 572.739 1415.15 571.873C1416.23 571.061 1417.21 569.68 1418.07 567.731L1420.35 562.371L1421.32 560.99L1437 523.307H1449.18L1429.44 569.68C1428.04 573.199 1426.41 575.961 1424.57 577.964C1422.78 579.967 1420.78 581.375 1418.56 582.187C1416.4 582.999 1413.99 583.405 1411.33 583.405ZM1418.8 568.705L1399.31 523.307H1412.39L1427.49 559.853L1418.8 568.705ZM1484.45 550.27C1482.66 551.245 1480.68 552.03 1478.52 552.625C1476.35 553.221 1473.97 553.519 1471.37 553.519C1465.63 553.519 1461.22 552.219 1458.13 549.62C1455.05 546.967 1453.5 542.771 1453.5 537.032V523.307H1466.17V536.22C1466.17 538.927 1466.88 540.876 1468.28 542.068C1469.69 543.205 1471.67 543.773 1474.21 543.773C1476.05 543.773 1477.81 543.556 1479.49 543.123C1481.22 542.69 1482.88 542.068 1484.45 541.255V550.27ZM1483.55 567V523.307H1496.22V567H1483.55ZM1539.82 556.605L1537.05 559.528V523.307H1549.72V559.528L1546.8 556.605H1566.94L1564.1 559.528V523.307H1576.69V567H1510.01V523.307H1522.6V559.528L1519.76 556.605H1539.82ZM1590.47 567V523.307H1603.06V549.296L1624.33 523.307H1635.95V567H1623.36V541.012L1602.16 567H1590.47ZM1649.75 567V523.307H1662.99L1679.48 553.194H1674.2L1691.82 523.307H1703.68L1703.84 567H1692.39V536.301L1694.34 537.601L1679.31 562.777H1673.95L1658.85 536.708L1661.2 536.139V567H1649.75ZM1717.6 567V523.307H1730.19V549.296L1751.46 523.307H1763.08V567H1750.49V541.012L1729.29 567H1717.6ZM1777.53 547.265L1775.01 510.151H1790.12L1787.6 547.265H1777.53ZM1782.57 567.65C1780.29 567.65 1778.42 566.919 1776.96 565.457C1775.5 563.995 1774.77 562.263 1774.77 560.259C1774.77 558.202 1775.5 556.496 1776.96 555.143C1778.42 553.735 1780.29 553.031 1782.57 553.031C1784.89 553.031 1786.76 553.735 1788.17 555.143C1789.63 556.496 1790.36 558.202 1790.36 560.259C1790.36 562.263 1789.63 563.995 1788.17 565.457C1786.76 566.919 1784.89 567.65 1782.57 567.65Z" fill="#277E37"/>
<path d="M898.431 439.032L867.51 380.745L900.919 361.197L945.701 439.032H898.431ZM820.952 439.032V314.638H862.89V439.032H820.952ZM850.806 394.073V361.02H897.898V394.073H850.806ZM905.006 381.278L866.444 377.369L902.163 314.638H945.879L905.006 381.278ZM1020.21 441.876C1010.14 441.876 1000.78 440.276 992.128 437.078C983.598 433.879 976.194 429.377 969.915 423.572C963.636 417.649 958.719 410.718 955.165 402.78C951.73 394.843 950.012 386.195 950.012 376.835C950.012 367.358 951.73 358.709 955.165 350.89C958.719 342.953 963.636 336.082 969.915 330.277C976.194 324.353 983.598 319.792 992.128 316.593C1000.78 313.394 1010.14 311.795 1020.21 311.795C1030.39 311.795 1039.75 313.394 1048.28 316.593C1056.81 319.792 1064.22 324.353 1070.5 330.277C1076.78 336.082 1081.63 342.953 1085.07 350.89C1088.62 358.709 1090.4 367.358 1090.4 376.835C1090.4 386.195 1088.62 394.843 1085.07 402.78C1081.63 410.718 1076.78 417.649 1070.5 423.572C1064.22 429.377 1056.81 433.879 1048.28 437.078C1039.75 440.276 1030.39 441.876 1020.21 441.876ZM1020.21 407.934C1024.12 407.934 1027.73 407.223 1031.05 405.801C1034.48 404.38 1037.44 402.366 1039.93 399.759C1042.54 397.035 1044.55 393.777 1045.97 389.986C1047.39 386.076 1048.11 381.693 1048.11 376.835C1048.11 371.978 1047.39 367.654 1045.97 363.863C1044.55 359.953 1042.54 356.695 1039.93 354.089C1037.44 351.364 1034.48 349.291 1031.05 347.869C1027.73 346.448 1024.12 345.737 1020.21 345.737C1016.3 345.737 1012.62 346.448 1009.19 347.869C1005.87 349.291 1002.91 351.364 1000.3 354.089C997.815 356.695 995.86 359.953 994.438 363.863C993.017 367.654 992.306 371.978 992.306 376.835C992.306 381.693 993.017 386.076 994.438 389.986C995.86 393.777 997.815 397.035 1000.3 399.759C1002.91 402.366 1005.87 404.38 1009.19 405.801C1012.62 407.223 1016.3 407.934 1020.21 407.934ZM1189.73 314.638H1231.66V439.032H1189.73V314.638ZM1150.99 439.032H1109.05V314.638H1150.99V439.032ZM1192.57 393.184H1148.14V358.709H1192.57V393.184ZM1319.89 441.876C1309.94 441.876 1300.69 440.336 1292.16 437.255C1283.75 434.057 1276.41 429.555 1270.13 423.75C1263.97 417.945 1259.17 411.073 1255.74 403.136C1252.3 395.198 1250.58 386.432 1250.58 376.835C1250.58 367.239 1252.3 358.473 1255.74 350.535C1259.17 342.597 1263.97 335.726 1270.13 329.921C1276.41 324.116 1283.75 319.673 1292.16 316.593C1300.69 313.394 1309.94 311.795 1319.89 311.795C1332.09 311.795 1342.87 313.928 1352.23 318.193C1361.71 322.457 1369.53 328.618 1375.69 336.674L1349.21 360.309C1345.54 355.688 1341.45 352.134 1336.95 349.646C1332.56 347.04 1327.59 345.737 1322.02 345.737C1317.64 345.737 1313.67 346.448 1310.11 347.869C1306.56 349.291 1303.48 351.364 1300.87 354.089C1298.38 356.814 1296.43 360.131 1295.01 364.041C1293.59 367.832 1292.88 372.097 1292.88 376.835C1292.88 381.574 1293.59 385.898 1295.01 389.808C1296.43 393.599 1298.38 396.857 1300.87 399.582C1303.48 402.307 1306.56 404.38 1310.11 405.801C1313.67 407.223 1317.64 407.934 1322.02 407.934C1327.59 407.934 1332.56 406.69 1336.95 404.202C1341.45 401.596 1345.54 397.982 1349.21 393.362L1375.69 416.997C1369.53 424.934 1361.71 431.095 1352.23 435.478C1342.87 439.743 1332.09 441.876 1319.89 441.876ZM1379.69 439.032L1434.07 314.638H1475.3L1529.68 439.032H1486.32L1446.15 334.541H1462.5L1422.34 439.032H1379.69ZM1412.03 417.352L1422.7 387.142H1479.92L1490.58 417.352H1412.03ZM1555.69 441.343C1553.08 441.343 1550.3 441.165 1547.34 440.81C1544.37 440.454 1541.23 439.862 1537.92 439.032L1540.05 405.446C1541.71 405.801 1543.25 405.979 1544.67 405.979C1549.29 405.979 1552.73 404.084 1554.98 400.293C1557.23 396.502 1558.77 391.407 1559.6 385.01C1560.43 378.494 1560.96 371.208 1561.2 363.152L1562.8 314.638H1667.82V439.032H1626.59V338.273L1635.65 347.159H1590.34L1598.51 337.74L1597.8 361.553C1597.45 373.518 1596.62 384.418 1595.32 394.251C1594.13 403.965 1592.06 412.377 1589.1 419.485C1586.13 426.475 1581.93 431.865 1576.48 435.656C1571.15 439.447 1564.22 441.343 1555.69 441.343ZM1721.6 439.032V338.096L1730.66 347.159H1685.17V314.638H1799.26V347.159H1753.77L1762.83 338.096V439.032H1721.6Z" fill="#277E37"/>
<path d="M904.845 221.91C885.294 221.91 868.844 219.483 855.496 214.629C842.282 209.775 832.304 202.628 825.562 193.19C818.82 183.752 815.45 172.223 815.45 158.605C815.45 144.986 818.82 133.525 825.562 124.222C832.304 114.783 842.349 107.637 855.698 102.783C869.047 97.929 885.496 95.502 905.048 95.502C905.317 95.502 906.396 95.502 908.284 95.502C910.171 95.502 912.059 95.502 913.947 95.502C915.834 95.502 916.846 95.502 916.98 95.502C936.262 95.502 952.375 97.9964 965.319 102.985C978.398 107.839 988.241 114.986 994.848 124.424C1001.45 133.728 1004.76 145.121 1004.76 158.605C1004.76 171.953 1001.52 183.347 995.05 192.786C988.713 202.224 979.207 209.438 966.532 214.427C953.858 219.415 938.15 221.91 919.407 221.91C919.003 221.91 917.655 221.91 915.362 221.91C913.205 221.91 911.048 221.91 908.89 221.91C906.733 221.91 905.385 221.91 904.845 221.91ZM909.093 185.504C909.497 185.504 910.239 185.504 911.317 185.504C912.396 185.504 913.138 185.504 913.542 185.504C924.464 185.504 933.228 184.628 939.835 182.875C946.442 180.987 951.229 178.088 954.195 174.178C957.161 170.133 958.644 164.875 958.644 158.403C958.644 151.93 957.094 146.807 953.993 143.031C950.891 139.121 946.037 136.29 939.43 134.537C932.958 132.784 924.531 131.907 914.149 131.907C913.61 131.907 912.801 131.907 911.722 131.907C910.643 131.907 909.767 131.907 909.093 131.907C897.497 131.907 888.193 132.784 881.182 134.537C874.305 136.155 869.316 138.919 866.215 142.829C863.114 146.739 861.563 151.998 861.563 158.605C861.563 165.212 863.316 170.538 866.822 174.583C870.327 178.493 875.586 181.325 882.597 183.077C889.744 184.695 898.575 185.504 909.093 185.504ZM888.261 237.281V81.3443H931.947V237.281H888.261ZM1024.07 230V119.368H1069.57V169.324L1107.8 119.368H1149.87V230H1104.36V179.841L1066.34 230H1024.07ZM1175.26 230V119.368H1220.77V158.2H1251.91V119.368H1297.42V230H1251.91V193.999H1220.77V230H1175.26ZM1324.72 230V88.4231H1371.64V138.582H1408.25V177.819H1371.64V230H1324.72ZM1458.4 233.236C1447.08 233.236 1436.63 231.416 1427.06 227.775C1417.62 224.135 1409.32 219.011 1402.18 212.404C1395.17 205.662 1389.71 197.774 1385.8 188.74C1382.02 179.706 1380.13 169.864 1380.13 159.212C1380.13 148.425 1382.02 138.582 1385.8 129.683C1389.71 120.649 1395.17 112.828 1402.18 106.221C1409.32 99.4796 1417.62 94.2884 1427.06 90.6479C1436.63 87.0073 1447.08 85.1871 1458.4 85.1871C1469.73 85.1871 1480.11 87.0073 1489.55 90.6479C1499.12 94.2884 1507.42 99.4796 1514.43 106.221C1521.44 112.828 1526.83 120.649 1530.61 129.683C1534.52 138.582 1536.47 148.425 1536.47 159.212C1536.47 169.864 1534.52 179.706 1530.61 188.74C1526.83 197.774 1521.44 205.662 1514.43 212.404C1507.42 219.011 1499.12 224.135 1489.55 227.775C1480.11 231.416 1469.73 233.236 1458.4 233.236ZM1458.4 194.606C1462.58 194.606 1466.43 193.797 1469.93 192.179C1473.57 190.561 1476.74 188.269 1479.44 185.302C1482.27 182.201 1484.43 178.493 1485.91 174.178C1487.53 169.729 1488.34 164.74 1488.34 159.212C1488.34 153.683 1487.53 148.762 1485.91 144.447C1484.43 139.998 1482.27 136.29 1479.44 133.323C1476.74 130.222 1473.57 127.862 1469.93 126.244C1466.43 124.626 1462.58 123.817 1458.4 123.817C1454.22 123.817 1450.31 124.626 1446.67 126.244C1443.03 127.862 1439.8 130.222 1436.97 133.323C1434.27 136.29 1432.11 139.998 1430.49 144.447C1429.01 148.762 1428.27 153.683 1428.27 159.212C1428.27 164.74 1429.01 169.729 1430.49 174.178C1432.11 178.493 1434.27 182.201 1436.97 185.302C1439.8 188.269 1443.03 190.561 1446.67 192.179C1450.31 193.797 1454.22 194.606 1458.4 194.606ZM1614.1 232.023C1601.43 232.023 1590.17 229.595 1580.32 224.741C1570.48 219.887 1562.73 213.146 1557.07 204.516C1551.54 195.752 1548.77 185.774 1548.77 174.583C1548.77 163.391 1551.54 153.481 1557.07 144.852C1562.73 136.222 1570.48 129.48 1580.32 124.626C1590.17 119.772 1601.43 117.345 1614.1 117.345C1627.58 117.345 1639.11 120.244 1648.69 126.042C1658.26 131.84 1664.87 139.863 1668.51 150.11L1633.11 167.504C1630.82 162.38 1627.99 158.672 1624.62 156.38C1621.38 154.088 1617.81 152.942 1613.9 152.942C1610.53 152.942 1607.36 153.751 1604.39 155.369C1601.56 156.987 1599.27 159.414 1597.52 162.65C1595.9 165.751 1595.09 169.729 1595.09 174.583C1595.09 179.437 1595.9 183.482 1597.52 186.718C1599.27 189.954 1601.56 192.381 1604.39 193.999C1607.36 195.617 1610.53 196.426 1613.9 196.426C1617.81 196.426 1621.38 195.28 1624.62 192.988C1627.99 190.696 1630.82 186.988 1633.11 181.864L1668.51 199.258C1664.87 209.505 1658.26 217.528 1648.69 223.326C1639.11 229.124 1627.58 232.023 1614.1 232.023ZM1711.6 230V145.256L1721.51 154.964H1677.82V119.368H1790.88V154.964H1747.19L1757.1 145.256V230H1711.6Z" fill="#277E37"/>
<path d="M749 103H450L449.873 259H554V207H629H637.5L635 224L631 249L626 277L621 301L615 325L609 346L603 363L594 386L585 404L575 422L562 440.5L545 462L530 477.5L513 493L493 509L482 517L467 527L461 530.5L447 540L440 544L431 549V664L437 662L469 649L500 633L519 622L539 609C544.167 605.333 554.6 598 555 598C555.4 598 561.833 593 565 590.5L582 576L590 569L600 560L611 549L622 537L633 524L647 505L655 492L665 474L670 464L676 451.5L682 438L688 424.5L694 409L700 393.5L706 376L709 366L713 353L717 339.5L721 324L725 307L728 293.5L732 273.5L735 258L738 239.5L740 225.5L743 202L744 192C744.333 189 745 182.9 745 182.5C745 182.1 745.667 174.333 746 170.5L747 157.5L748 141.5L749 103Z" fill="#277E37" stroke="#277E37"/>
<path d="M393.82 103H95V116L96 132L97 156L98 170L100 192L102 208.5L105 231L107 245L110 262.5L115 288.5L121 316L126 335L131 353L137 373L144 393L151 412L157 427L160.5 436L166 447L171 458L176.5 469.5L181.5 479L187 489L193 499L197 505L203 514L207 519L214 528L219 534L225 540.5L231 547L239 555L250 566L260 575L270 583L281 592L293 601L299 605L308.5 612L318 618L324 622L331 626L336 629L338 630L342 632.5L348.5 636C349.833 636.667 352.6 638 353 638C353.4 638 357.833 640.667 360 642L371 647L374.5 649L379 651L383.5 653L385.5 654C387.167 654.667 390.6 656 391 656C391.4 656 396.167 658 398.5 659L403.5 661L410 663L413 664V552.5V549L408 546L404 544L397 540L392.5 537L386.5 533.5L382 531L375.5 527.5L366 521L360 517L350 510L346 507L338 501L330.5 495.5L326.5 491.5L319.5 485.5L310 476.5L303 468.5L294 459L291 455L288 451L286 448L284 445L282 442.5L280.5 440H280V439V438H279V437H278V436H277V435V434H276V433.5V433V432H275V431H274V430.5V430V429H273V428H272.5H272V427.5V426H271V425V424H270V423V422H269V421H268V420V419V418H267V417H266V416V415H265V414H346L346.5 310H224V306H223V302H222V297H221V293H220V289H219V284.5H218V280H217V275.5H216V269H215V264H214V259H213V258.5V252H212V246H211V238H210V229H209V222V221H208V216.5V215.5V215V214.5V214H207V213.5V213V212V211.5V210.5V209.5V209V208.5L206.217 208V207H290V207.5V259L393.82 258.836V103Z" fill="#277E37" stroke="#277E37"/>
</svg>
