<svg width="745" height="745" viewBox="0 0 745 745" fill="none" xmlns="http://www.w3.org/2000/svg">
<circle cx="372.5" cy="372.5" r="372.5" fill="#31AEE2"/>
<path d="M143.5 346.5L155 340.5L168.5 335L181 330L196 324L223.5 313.5L243 305.5L262 298L280.5 291L300.5 283L320.5 275.5L343 266L362.5 258.5L380 252L394 246.5L406 242L429 232.5L450.5 224.5L478 213.5L504 203.5L535.5 191L552 185H563L568.5 187.5L571.5 191L572.5 195V201L570 210L568.5 219L567 229L565 238L562.5 249.5L561 257L560 264L558.5 270L557 276L554.5 290.5L551 307.5L548 323C546.5 330 543.5 344.1 543.5 344.5C543.5 345 540.5 361 540.5 361.5C540.5 361.9 538.5 371.333 537.5 376L533 398L529.5 417.5L526.5 431.5L521 460.5L516.5 482L511 509.5L509 521.5L505 541C504.5 542.833 503.5 546.6 503.5 547C503.5 547.4 499.833 552.5 498 555L492 558L482 560.5H476.5C474.167 559.833 469.4 558.5 469 558.5C468.6 558.5 464.167 555.167 462 553.5L453 546.5L435.5 533L413.5 516.5L393 501L372 485L351.5 469L328.5 450.5L314 439L309 435.5V432.5L322.5 420.5L335 409.5L345.5 400L356.5 390L365.5 382L374.5 374L384 364.5L399.5 351.5L412.5 339.5L427 326.5L442.5 312.5L459.5 296.5L469 288L480.5 277.5L492 267.5L495 263L496.5 259.5V258L495 256.5H493.5L490.5 258L481.5 262L464 273L443.5 286L416.5 303.5L388.5 321L364 336.5L333 356L307.5 372L279 390.5L256 405L251 408L242 405.5C235.667 403.167 222.9 398.5 222.5 398.5C222.1 398.5 202.667 391.833 193 388.5L175 383C171 381.333 162.8 378 162 378C161.2 378 153 374.667 149 373L143 368L138.5 362.5L137 359L137.5 353L139.5 349.5L143.5 346.5Z" fill="white" stroke="white"/>
</svg>
