<svg width="745" height="745" viewBox="0 0 745 745" fill="none" xmlns="http://www.w3.org/2000/svg">
<circle cx="372.5" cy="372.5" r="372.5" fill="black"/>
<path d="M342.785 313.827L350.398 314.672V392.661L344.723 391.333C343.108 390.971 338.854 390.174 334.757 389.885C330.66 389.595 326.683 389.603 325.207 389.643C323.961 389.683 320.501 389.909 316.625 390.488C312.75 391.068 309.566 391.857 308.459 392.178L300.984 394.352L293.925 397.249L285.344 401.957L279.53 405.941L274.271 410.529L269.288 415.72L265.274 420.791L261.675 426.586L258.491 433.95C257.753 436.324 256.277 441.121 256.277 441.314C256.277 441.556 255.17 447.109 255.17 447.23C255.17 447.327 254.893 450.329 254.754 451.818L255.17 459.906L256.969 469.323C257.707 471.496 259.211 475.866 259.322 475.963C259.433 476.06 261.214 479.867 262.09 481.758L266.796 488.881L271.918 495.038L276.485 499.505C278.146 500.833 281.496 503.489 281.607 503.489C281.717 503.489 285.528 506.064 287.42 507.352L294.756 511.215L304.86 514.837L313.303 516.89C316.441 517.292 322.798 518.121 323.131 518.218C323.546 518.338 334.757 518.218 334.896 518.218C335.034 518.218 338.356 517.735 338.495 517.735C338.633 517.735 347.907 516.044 348.045 516.044C348.156 516.044 351.229 515.159 352.751 514.716C355.473 513.71 360.945 511.698 361.056 511.698C361.167 511.698 367.1 508.64 370.053 507.111L376.974 502.402L383.202 497.09L389.569 490.209L394.829 482.12L398.981 472.703L401.611 463.287C401.824 461.436 402.248 457.685 402.248 457.492V449.524V431.656V418.618V150H489.919L490.196 156.64L490.75 162.314L491.58 167.505L493.518 175.353L495.456 181.148L498.224 188.15L501.269 194.428L504.868 200.705L508.743 206.5L513.173 212.054L517.74 217.366L523.138 222.678L528.675 227.507L535.319 232.577L540.994 236.32L546.115 239.338L549.16 240.907L554.558 243.563L559.818 245.978L565.216 248.03C566.231 248.433 568.317 249.238 568.538 249.238C568.76 249.238 572.229 250.364 573.936 250.928L576.704 251.652L584.594 253.584C585.24 253.705 586.56 253.946 586.67 253.946C586.781 253.946 589.485 254.429 590.823 254.67L596.636 255.515C598.297 255.676 601.674 255.998 601.896 255.998C602.117 255.998 603.926 256.181 604.802 256.273H612V332.781L602.311 332.539L596.221 332.298L590.684 331.815C589.669 331.694 587.612 331.453 587.501 331.453C587.39 331.453 584.41 331.211 582.933 331.091L578.504 330.366L573.659 329.763L568.677 328.797L562.171 327.469L557.188 326.503L548.053 324.089L542.655 322.519L536.011 320.346L525.907 316.724C523.738 315.758 519.374 313.827 519.263 313.827C519.152 313.827 514.695 311.815 512.481 310.809L508.743 308.998L502.653 305.979L497.393 302.961L492.549 300.305L489.919 298.736V457.492L489.642 465.218L488.12 476.084L485.767 486.587L482.445 496.849L478.984 505.421L474.278 514.958L468.88 523.771L463.205 531.86L457.53 538.741L450.748 546.106L443.827 552.866L436.768 558.661L430.955 563.007C427.633 565.221 420.961 569.647 420.851 569.647C420.74 569.647 414.899 573.108 411.992 574.839C409.362 576.126 404.047 578.726 403.826 578.823C403.604 578.919 398.105 581.277 395.383 582.444L387.216 585.463L381.541 587.394L374.759 589.205C372.59 589.768 368.143 590.895 367.7 590.895C367.257 590.895 360.871 592.183 357.734 592.827C355.058 593.189 349.651 593.913 349.429 593.913C349.208 593.913 341.863 594.396 338.218 594.638L331.989 595H324.1C323.767 595 317.779 594.759 314.826 594.638L306.798 593.672L299.6 592.827L291.295 591.257L281.468 588.964L272.886 586.428L265.135 583.652L256.415 580.03L250.187 577.374L243.404 573.873L235.238 569.044C233.208 567.796 229.092 565.229 228.871 564.939C228.594 564.577 223.196 560.955 223.196 560.834C223.196 560.738 219.966 558.219 218.351 556.971L212.815 552.383L209.078 549.003L204.095 543.932L199.527 538.862L196.067 534.636L191.776 528.962L188.177 523.771L184.717 518.218L182.226 513.992L179.596 508.922L177.104 503.368L175.028 498.056L172.813 491.778L171.014 485.501L169.768 480.189L168.799 474.635L167.969 468.961L167.138 462.08C167.092 460.47 167 457.178 167 456.888C167 456.599 167.092 452.663 167.138 450.731L167.969 439.262L169.076 431.777L170.46 425.137L172.675 417.411L174.336 412.34L177.381 404.493L182.087 394.593L190.669 380.83L198.005 371.172L206.863 361.514L213.784 355.115L221.12 348.958L228.871 343.284L238.006 337.489L247.003 332.539L255.031 328.676L262.505 325.537L271.226 322.278L280.914 319.501L289.635 317.328L300.154 315.396L308.044 314.43L315.379 313.706L323.269 313.223C327.283 313.263 335.422 313.344 335.865 313.344C336.308 313.344 340.663 313.666 342.785 313.827Z" fill="#E5004E" stroke="black"/>
<path d="M308.785 313.827L316.398 314.672V392.661L310.723 391.333C309.108 390.971 304.854 390.174 300.757 389.885C296.66 389.595 292.683 389.603 291.207 389.643C289.961 389.683 286.501 389.909 282.625 390.488C278.75 391.068 275.566 391.857 274.459 392.178L266.984 394.352L259.925 397.249L251.344 401.957L245.53 405.941L240.271 410.529L235.288 415.72L231.274 420.791L227.675 426.586L224.491 433.95C223.753 436.324 222.277 441.121 222.277 441.314C222.277 441.556 221.17 447.109 221.17 447.23C221.17 447.327 220.893 450.329 220.754 451.818L221.17 459.906L222.969 469.323C223.707 471.496 225.211 475.866 225.322 475.963C225.433 476.06 227.214 479.867 228.09 481.758L232.796 488.881L237.918 495.038L242.485 499.505C244.146 500.833 247.496 503.489 247.607 503.489C247.717 503.489 251.528 506.064 253.42 507.352L260.756 511.215L270.86 514.837L279.303 516.89C282.441 517.292 288.798 518.121 289.131 518.218C289.546 518.338 300.757 518.218 300.896 518.218C301.034 518.218 304.356 517.735 304.495 517.735C304.633 517.735 313.907 516.044 314.045 516.044C314.156 516.044 317.229 515.159 318.751 514.716C321.473 513.71 326.945 511.698 327.056 511.698C327.167 511.698 333.1 508.64 336.053 507.111L342.974 502.402L349.202 497.09L355.569 490.209L360.829 482.12L364.981 472.703L367.611 463.287C367.824 461.436 368.248 457.685 368.248 457.492V449.524V431.656V418.618V150H455.919L456.196 156.64L456.75 162.314L457.58 167.505L459.518 175.353L461.456 181.148L464.224 188.15L467.269 194.428L470.868 200.705L474.743 206.5L479.173 212.054L483.74 217.366L489.138 222.678L494.675 227.507L501.319 232.577L506.994 236.32L512.115 239.338L515.16 240.907L520.558 243.563L525.818 245.978L531.216 248.03C532.231 248.433 534.317 249.238 534.538 249.238C534.76 249.238 538.229 250.364 539.936 250.928L542.704 251.652L550.594 253.584C551.24 253.705 552.56 253.946 552.67 253.946C552.781 253.946 555.485 254.429 556.823 254.67L562.636 255.515C564.297 255.676 567.674 255.998 567.896 255.998C568.117 255.998 569.926 256.181 570.802 256.273H578V332.781L568.311 332.539L562.221 332.298L556.684 331.815C555.669 331.694 553.612 331.453 553.501 331.453C553.39 331.453 550.41 331.211 548.933 331.091L544.504 330.366L539.659 329.763L534.677 328.797L528.171 327.469L523.188 326.503L514.053 324.089L508.655 322.519L502.011 320.346L491.907 316.724C489.738 315.758 485.374 313.827 485.263 313.827C485.152 313.827 480.695 311.815 478.481 310.809L474.743 308.998L468.653 305.979L463.393 302.961L458.549 300.305L455.919 298.736V457.492L455.642 465.218L454.12 476.084L451.767 486.587L448.445 496.849L444.984 505.421L440.278 514.958L434.88 523.771L429.205 531.86L423.53 538.741L416.748 546.106L409.827 552.866L402.768 558.661L396.955 563.007C393.633 565.221 386.961 569.647 386.851 569.647C386.74 569.647 380.899 573.108 377.992 574.839C375.362 576.126 370.047 578.726 369.826 578.823C369.604 578.919 364.105 581.277 361.383 582.444L353.216 585.463L347.541 587.394L340.759 589.205C338.59 589.768 334.143 590.895 333.7 590.895C333.257 590.895 326.871 592.183 323.734 592.827C321.058 593.189 315.651 593.913 315.429 593.913C315.208 593.913 307.863 594.396 304.218 594.638L297.989 595H290.1C289.767 595 283.779 594.759 280.826 594.638L272.798 593.672L265.6 592.827L257.295 591.257L247.468 588.964L238.886 586.428L231.135 583.652L222.415 580.03L216.187 577.374L209.404 573.873L201.238 569.044C199.208 567.796 195.092 565.229 194.871 564.939C194.594 564.577 189.196 560.955 189.196 560.834C189.196 560.738 185.966 558.219 184.351 556.971L178.815 552.383L175.078 549.003L170.095 543.932L165.527 538.862L162.067 534.636L157.776 528.962L154.177 523.771L150.717 518.218L148.226 513.992L145.596 508.922L143.104 503.368L141.028 498.056L138.813 491.778L137.014 485.501L135.768 480.189L134.799 474.635L133.969 468.961L133.138 462.08C133.092 460.47 133 457.178 133 456.888C133 456.599 133.092 452.663 133.138 450.731L133.969 439.262L135.076 431.777L136.46 425.137L138.675 417.411L140.336 412.34L143.381 404.493L148.087 394.593L156.669 380.83L164.005 371.172L172.863 361.514L179.784 355.115L187.12 348.958L194.871 343.284L204.006 337.489L213.003 332.539L221.031 328.676L228.505 325.537L237.226 322.278L246.914 319.501L255.635 317.328L266.154 315.396L274.044 314.43L281.379 313.706L289.269 313.223C293.283 313.263 301.422 313.344 301.865 313.344C302.308 313.344 306.663 313.666 308.785 313.827Z" fill="white" stroke="black"/>
</svg>
