<svg width="745" height="745" viewBox="0 0 745 745" fill="none" xmlns="http://www.w3.org/2000/svg">
<circle cx="372.5" cy="372.5" r="372.5" fill="#0EC143"/>
<path fill-rule="evenodd" clip-rule="evenodd" d="M193.646 178.55L202.585 170.751L210.247 164.593L217.909 159.257L226.848 152.69L243.449 142.838L261.327 133.808L279.205 126.419L297.934 120.262L323.474 114.515L351.142 110.41L365.615 110H392.006L405.628 110.821C411.161 111.642 422.399 113.284 423.08 113.284C423.761 113.284 435.282 115.473 440.958 116.568L457.559 121.083L480.119 128.882L503.105 139.554L526.516 153.1L543.543 164.593L561.421 179.781L577.596 196.2L598.88 222.06L615.055 249.152L627.825 276.654L636.338 303.335L640.169 319.754L642.297 333.71L643.574 347.666L644 373.937L643.149 389.945L641.02 407.596L637.189 426.067L629.953 449.054L621.014 470.399L608.67 493.385L593.772 515.551L579.299 533.202L562.698 550.031L545.671 564.398L524.814 579.175L507.362 589.027L489.484 598.057L466.072 606.677L444.789 613.245L421.803 617.76L401.797 620.633H357.527L332.839 618.17L314.11 614.476L295.806 609.55L276.225 602.983L267.712 599.699L254.516 593.542L247.706 590.258H246.854H246.003H245.577L230.679 595.184L217.484 598.878L197.477 605.035L176.194 611.603L159.167 616.939L142.992 621.454L128.094 626.38L114.047 630.485L100 635L102.128 626.38L107.662 609.961L112.77 596.005L119.155 577.123L125.54 559.472L132.776 540.59L134.905 533.612L141.715 514.32L147.674 498.311V497.49C143.985 491.059 136.522 478.034 136.182 477.377C135.841 476.72 130.648 465.61 128.094 460.137L124.689 451.106L117.878 430.993L116.175 424.836C115.466 421.278 114.047 414.081 114.047 413.753C114.047 413.425 112.628 406.775 111.919 403.491C111.067 397.197 109.365 384.527 109.365 384.199V359.57L109.79 343.972L112.344 324.269L116.175 306.618L120.006 291.431L124.689 277.885C126.249 274.054 129.456 266.228 129.797 265.571C130.137 264.914 135.614 253.53 138.31 247.92L147.674 232.733L155.762 220.418L163.424 210.156L174.066 197.842L185.984 185.117L193.646 178.55ZM292.826 165.414L277.077 172.392L271.117 175.676L263.881 178.96C261.327 180.602 256.134 183.968 255.793 184.296C255.453 184.625 247.706 189.906 243.875 192.506L238.341 196.611L230.254 202.768L219.186 212.209L212.376 219.187C209.68 221.923 204.203 227.478 203.862 227.807C203.522 228.135 201.166 231.228 200.031 232.733L192.369 242.584L188.538 248.331L179.174 262.697L171.512 277.064L164.701 293.483L158.316 312.776L154.911 330.016L151.931 348.487L151.505 375.989L153.208 391.998L158.742 417.858L165.978 439.202C166.688 440.981 168.106 444.621 168.106 444.949C168.106 445.278 171.796 453.296 173.64 457.263C175.485 460.684 179.174 467.607 179.174 467.936C179.174 468.264 184.849 476.83 187.687 481.071L194.923 491.744C194.214 493.522 192.795 497.162 192.795 497.49C192.795 497.819 189.106 508.026 187.261 513.088L180.451 531.97L174.917 547.568L165.978 571.376L171.086 569.734L180.025 567.271L195.775 562.346L204.714 559.472L215.781 556.188L223.443 554.136L239.618 548.8L253.665 545.106L259.199 547.979L267.712 553.315L275.8 557.42L285.164 561.525L293.252 565.219L307.725 570.555L323.9 574.66L339.649 577.944L359.656 580.407H391.155L403.499 579.175C406.621 578.765 413.034 577.944 413.715 577.944C414.396 577.944 421.093 576.849 424.357 576.302L438.404 572.197L451.174 568.913L466.923 562.346L484.801 554.136L496.72 547.568L511.618 537.306L523.537 528.276L535.03 518.425L544.82 508.163L555.887 495.438L564.826 483.534L574.617 467.936L580.576 457.263L588.238 438.792L593.772 422.373L598.454 403.491L600.157 389.124L601.433 378.452V361.212C601.433 360.801 600.582 346.845 600.582 346.435C600.582 346.106 600.298 341.372 600.157 339.046L598.454 328.784L595.474 313.597L589.515 295.125L582.279 277.064L575.468 264.339L567.806 252.025L560.57 240.532L548.651 226.165L538.861 215.903L528.219 206.052L514.172 194.969L498.423 184.296L484.801 176.497L472.883 170.751L457.559 164.593L442.235 159.257L431.167 156.384L412.864 153.1L392.858 150.227H361.784L356.676 151.048L340.501 153.1L323.049 156.384L306.448 160.899L292.826 165.414Z" fill="white"/>
<path d="M305.171 249.562L309.427 252.025L312.407 256.13L314.961 261.056C315.67 262.834 317.089 266.474 317.089 266.802C317.089 267.213 318.792 270.907 318.792 271.317C318.792 271.646 319.927 273.643 320.495 274.601L324.751 284.453L328.582 293.073C329.575 295.125 331.562 299.312 331.562 299.64C331.562 299.969 333.832 304.703 334.967 307.029L335.393 308.671L335.818 309.492V314.418L333.69 319.343L329.859 325.5L321.772 334.941L314.961 343.151L313.684 346.435L316.664 353.413L322.197 360.801L325.603 365.727L334.116 376.4L342.203 385.43L351.568 394.05L362.635 403.081L377.534 412.932L394.135 421.142L408.607 427.299L414.141 427.709L428.188 414.574L437.552 403.491L443.086 396.513L444.363 395.692H451.174L455.856 397.334L472.883 404.722L489.909 412.521L505.659 419.5L512.044 424.015L512.895 425.657V427.299V432.635L512.044 438.382L510.341 447.823L507.362 456.032L505.233 459.316L500.125 465.473L493.74 470.399L482.673 477.787L476.288 480.661C474.16 481.345 469.818 482.795 469.477 483.124C469.137 483.452 464.511 484.355 462.241 484.765L456.282 485.586L449.045 485.997L442.66 485.586L432.444 484.355L422.654 481.071C420.81 480.524 417.035 479.429 416.695 479.429C416.354 479.429 407.188 476.419 402.648 474.914L395.412 472.041L382.642 467.936L374.98 464.242L365.615 460.137L355.399 454.39L344.757 447.412L338.798 443.307L331.136 437.15L324.751 431.814L317.089 424.836L304.745 412.932L295.806 403.901L291.975 398.976L285.59 391.177L281.759 385.84L273.246 374.347L261.753 357.518L251.962 338.225L246.429 317.701V304.566L247.706 296.767L249.834 285.684L252.388 279.527L258.347 268.444L266.861 259.003L274.097 252.025L280.056 249.562L284.313 248.741H297.934L305.171 249.562Z" fill="white"/>
<path d="M109.365 384.199C109.365 384.527 111.067 397.197 111.919 403.491C112.628 406.775 114.047 413.425 114.047 413.753C114.047 414.081 115.466 421.278 116.175 424.836L117.878 430.993L124.689 451.106L128.094 460.137C130.648 465.61 135.841 476.72 136.182 477.377C136.522 478.034 143.985 491.059 147.674 497.49V498.311L141.715 514.32L134.905 533.612L132.776 540.59L125.54 559.472L119.155 577.123L112.77 596.005L107.662 609.961L102.128 626.38L100 635L114.047 630.485L128.094 626.38L142.992 621.454L159.167 616.939L176.194 611.603L197.477 605.035L217.484 598.878L230.679 595.184L245.577 590.258H246.003H246.854H247.706L254.516 593.542L267.712 599.699L276.225 602.983L295.806 609.55L314.11 614.476L332.839 618.17L357.527 620.633H401.797L421.803 617.76L444.789 613.245L466.072 606.677L489.484 598.057L507.362 589.027L524.814 579.175L545.671 564.398L562.698 550.031L579.299 533.202L593.772 515.551L608.67 493.385L621.014 470.399L629.953 449.054L637.189 426.067L641.02 407.596L643.149 389.945L644 373.937L643.574 347.666L642.297 333.71L640.169 319.754L636.338 303.335L627.825 276.654L615.055 249.152L598.88 222.06L577.596 196.2L561.421 179.781L543.543 164.593L526.516 153.1L503.105 139.554L480.119 128.882L457.559 121.083L440.958 116.568C435.282 115.473 423.761 113.284 423.08 113.284C422.399 113.284 411.161 111.642 405.628 110.821L392.006 110H365.615L351.142 110.41L323.474 114.515L297.934 120.262L279.205 126.419L261.327 133.808L243.449 142.838L226.848 152.69L217.909 159.257L210.247 164.593L202.585 170.751L193.646 178.55L185.984 185.117L174.066 197.842L163.424 210.156L155.762 220.418L147.674 232.733L138.31 247.92C135.614 253.53 130.137 264.914 129.797 265.571C129.456 266.228 126.249 274.054 124.689 277.885L120.006 291.431L116.175 306.618L112.344 324.269L109.79 343.972L109.365 359.57M109.365 384.199C109.365 383.87 109.365 367.643 109.365 359.57M109.365 384.199V359.57M601.433 361.212C601.433 360.801 600.582 346.845 600.582 346.435C600.582 346.106 600.298 341.372 600.157 339.046L598.454 328.784L595.474 313.597L589.515 295.125L582.279 277.064L575.468 264.339L567.806 252.025L560.57 240.532L548.651 226.165L538.861 215.903L528.219 206.052L514.172 194.969L498.423 184.296L484.801 176.497L472.883 170.751L457.559 164.593L442.235 159.257L431.167 156.384L412.864 153.1L392.858 150.227H361.784L356.676 151.048L340.501 153.1L323.049 156.384L306.448 160.899L292.826 165.414L277.077 172.392L271.117 175.676L263.881 178.96C261.327 180.602 256.134 183.968 255.793 184.296C255.453 184.625 247.706 189.906 243.875 192.506L238.341 196.611L230.254 202.768L219.186 212.209L212.376 219.187C209.68 221.923 204.203 227.478 203.862 227.807C203.522 228.135 201.166 231.228 200.031 232.733L192.369 242.584L188.538 248.331L179.174 262.697L171.512 277.064L164.701 293.483L158.316 312.776L154.911 330.016L151.931 348.487L151.505 375.989L153.208 391.998L158.742 417.858L165.978 439.202C166.688 440.981 168.106 444.621 168.106 444.949C168.106 445.278 171.796 453.296 173.64 457.263C175.485 460.684 179.174 467.607 179.174 467.936C179.174 468.264 184.849 476.83 187.687 481.071L194.923 491.744C194.214 493.522 192.795 497.162 192.795 497.49C192.795 497.819 189.106 508.026 187.261 513.088L180.451 531.97L174.917 547.568L165.978 571.376L171.086 569.734L180.025 567.271L195.775 562.346L204.714 559.472L215.781 556.188L223.443 554.136L239.618 548.8L253.665 545.106L259.199 547.979L267.712 553.315L275.8 557.42L285.164 561.525L293.252 565.219L307.725 570.555L323.9 574.66L339.649 577.944L359.656 580.407H391.155L403.499 579.175C406.621 578.765 413.034 577.944 413.715 577.944C414.396 577.944 421.093 576.849 424.357 576.302L438.404 572.197L451.174 568.913L466.923 562.346L484.801 554.136L496.72 547.568L511.618 537.306L523.537 528.276L535.03 518.425L544.82 508.163L555.887 495.438L564.826 483.534L574.617 467.936L580.576 457.263L588.238 438.792L593.772 422.373L598.454 403.491L600.157 389.124L601.433 378.452M601.433 361.212C601.433 361.54 601.433 372.842 601.433 378.452M601.433 361.212V378.452M305.171 249.562L309.427 252.025L312.407 256.13L314.961 261.056C315.67 262.834 317.089 266.474 317.089 266.802C317.089 267.213 318.792 270.907 318.792 271.317C318.792 271.646 319.927 273.643 320.495 274.601L324.751 284.453L328.582 293.073C329.575 295.125 331.562 299.312 331.562 299.64C331.562 299.969 333.832 304.703 334.967 307.029L335.393 308.671L335.818 309.492V314.418L333.69 319.343L329.859 325.5L321.772 334.941L314.961 343.151L313.684 346.435L316.664 353.413L322.197 360.801L325.603 365.727L334.116 376.4L342.203 385.43L351.568 394.05L362.635 403.081L377.534 412.932L394.135 421.142L408.607 427.299L414.141 427.709L428.188 414.574L437.552 403.491L443.086 396.513L444.363 395.692H451.174L455.856 397.334L472.883 404.722L489.909 412.521L505.659 419.5L512.044 424.015L512.895 425.657V427.299V432.635L512.044 438.382L510.341 447.823L507.362 456.032L505.233 459.316L500.125 465.473L493.74 470.399L482.673 477.787L476.288 480.661C474.16 481.345 469.818 482.795 469.477 483.124C469.137 483.452 464.511 484.355 462.241 484.765L456.282 485.586L449.045 485.997L442.66 485.586L432.444 484.355L422.654 481.071C420.81 480.524 417.035 479.429 416.695 479.429C416.354 479.429 407.188 476.419 402.648 474.914L395.412 472.041L382.642 467.936L374.98 464.242L365.615 460.137L355.399 454.39L344.757 447.412L338.798 443.307L331.136 437.15L324.751 431.814L317.089 424.836L304.745 412.932L295.806 403.901L291.975 398.976L285.59 391.177L281.759 385.84L273.246 374.347L261.753 357.518L251.962 338.225L246.429 317.701V304.566L247.706 296.767L249.834 285.684L252.388 279.527L258.347 268.444L266.861 259.003L274.097 252.025L280.056 249.562L284.313 248.741H297.934L305.171 249.562Z" stroke="#BBEEAA"/>
</svg>
