<svg width="747" height="745" viewBox="0 0 747 745" fill="none" xmlns="http://www.w3.org/2000/svg">
<path fill-rule="evenodd" clip-rule="evenodd" d="M82.9618 130.19L90.4367 128.83L97.7805 127.605L107.616 126.109L116.14 124.884L129.647 123.388L141.974 122.027L156.4 120.803L172.005 119.578L185.512 118.626L199.151 117.81L213.838 117.129L228.001 116.449L244.525 115.769L255.934 115.361L270.622 115.088L290.161 114.68L310.75 114.272L336.847 114H402.154L423.398 114.272L443.856 114.544L464.576 114.952L487.919 115.633L508.376 116.313L528.572 116.993L551.652 118.082L575.782 119.442L603.714 121.211L632.303 124.204L645.548 125.701L657.481 128.014L667.448 131.007L675.054 133.864L681.742 136.993L687.119 139.986L691.577 142.98L696.036 146.517L701.151 150.735L705.347 154.952L709.543 159.442L713.478 164.34L716.887 169.374L720.166 174.952L723.706 181.891L726.329 188.014L728.69 194.816L730.526 201.891L732.493 211.279L734.46 221.347L736.165 231.687L737.869 242.98L739.181 253.456L740.492 264.204L741.541 274.952L742.59 285.565L743.377 297.401L744.164 309.374L744.82 322.571L745.344 338.354L745.738 350.599L746 364.068V387.197V402.571L745.738 417.401L744.951 438.49L743.508 462.435L742.066 483.66L739.968 503.252L738.919 514.816L737.476 525.02L736.033 536.993L734.46 546.517L733.017 554.272L731.444 563.388L730.001 570.19L728.296 575.497L725.936 582.163L723.969 586.789L721.739 591.415L717.805 597.946L714.789 602.299L711.248 606.925L706.396 612.367L701.282 617.401L695.774 622.027L690.266 625.973L683.709 629.782L677.021 633.184L669.022 636.313L661.284 638.626L651.318 640.667L640.04 642.435L633.352 643.388L622.074 644.748L610.927 645.973L599.124 647.061L587.584 648.014L575.388 648.83L563.455 649.646L547.325 650.463L532.375 651.279L518.474 651.823L493.295 652.776L475.329 653.184L450.413 653.728L423.136 654H350.485L328.323 653.864L304.062 653.32L280.85 653.048L245.443 651.959L224.592 651.007L200.2 650.054L181.316 648.83L150.367 646.789L127.287 644.748L107.878 642.435L89.6499 639.578L82.3061 637.81L73.1264 634.816L67.4874 632.367L60.6682 628.83L55.5538 625.429L48.3411 620.122L43.3579 615.633L38.3746 610.463L33.3913 604.476L30.3751 600.395L25.9164 593.048L23.5559 588.694L20.4086 581.483L18.8349 577.81L16.4744 569.374L15.0319 563.796L13.5893 556.449L12.1468 548.966L10.442 538.218L9.78631 533.456L8.47492 523.932L7.81922 517.946L6.63897 507.878L6.11442 503.796L4.80303 489.782L3.62278 473.184L2.83594 459.034L2.04911 446.109L1.65569 431.959L1.26228 418.626L1 405.02V362.163L1.52456 345.973L1.91797 328.422L2.70481 312.095L3.75392 294.816L5.19644 276.177L6.90125 259.306L8.86833 241.483L11.4911 222.98L14.6384 205.156L17.1301 194.272L20.4086 185.565L24.4739 176.721L28.6703 169.646L33.9159 162.571L39.1614 156.449L43.8824 151.823L49.2591 147.061L55.1604 142.707L60.7993 139.306L68.1431 135.361L76.0114 132.095L82.9618 130.19ZM495.656 383.66L301.701 268.15L301.177 500.395L495.656 383.66Z" fill="#E11D1B" stroke="#E11D1B"/>
</svg>
